# xmcd
#
# Track frame offsets: 
#        150
#        12382
#        27222
#        40992
#        53405
#        67695
#        81455
#        94835
#        108605
#        122215
#        135727
#        149630
#        162920
#        177850
#        192020
#        206007
#        217555
#        229230
#        241955
#        256172
#        268727
#        282927
#        298717
#        313037
#
# Disc length: 4362 seconds
#
# Revision: 1
# Processed by: cddbd v1.5.2PL0 Copyright (c) Steve Scherf et al.
# Submitted via: ExactAudioCopy v0.99pb5
#
DISCID=5e110818
DTITLE=Various Artist - Ragtime Blues Guitar (1927-1930)
DYEAR=1991
DGENRE=Blues
TTITLE0=Blind Blake - Dry Bone Shuffle (Take 1)
TTITLE1=William (Bill) Moore - One Way Gal
TTITLE2=William (Bill) Moore - Ragtime Crazy
TTITLE3=William (Bill) Moore - Midnight Blues
TTITLE4=William (Bill) Moore - Ragtime Millionaire
TTITLE5=William (Bill) Moore - Tillie Lee
TTITLE6=William (Bill) Moore - Barbershop Rag
TTITLE7=William (Bill) Moore - Old Country Rock
TTITLE8=William (Bill) Moore - Raggin' The Blues
TTITLE9=Tarter And Gay - Brownie Blues
TTITLE10=Tarter And Gay - Unknown Blues
TTITLE11=Chicken Wilson And Skeeter Hinton - Myrtle Avenue Stomp
TTITLE12=Chicken Wilson And Skeeter Hinton - D.C. Rag
TTITLE13=Chicken Wilson And Skeeter Hinton - Chicken Wilson Blues
TTITLE14=Chicken Wilson And Skeeter Hinton - House Snake Blues
TTITLE15=Chicken Wilson And Skeeter Hinton - Frog Eye Stomp
TTITLE16=Chicken Wilson And Skeeter Hinton - Station House Rag
TTITLE17=Bayless Rose - Jamestown Exhibition
TTITLE18=Bayless Rose - Black Dog Blues
TTITLE19=Bayless Rose - Original Blues
TTITLE20=Bayless Rose - Frisco Blues
TTITLE21=Willie Walker - Dupree Blues
TTITLE22=Willie Walker - South Carolina Rag (Take 1)
TTITLE23=Willie Walker - South Carolina Rag (Take 2)
EXTD=YEAR: 1991
EXTT0=
EXTT1=
EXTT2=
EXTT3=
EXTT4=
EXTT5=
EXTT6=
EXTT7=
EXTT8=
EXTT9=
EXTT10=
EXTT11=
EXTT12=
EXTT13=
EXTT14=
EXTT15=
EXTT16=
EXTT17=
EXTT18=
EXTT19=
EXTT20=
EXTT21=
EXTT22=
EXTT23=
PLAYORDER=
